# Blender 3.4.1
# www.blender.org
mtllib ram.mtl
o Cube.005
v -3.931347 8.180357 0.000730
v -3.931347 8.190613 0.000730
v -6.593899 -0.212504 -3.874256
v -3.931347 8.190613 -0.007824
v -0.057091 0.442101 -10.701245
v -0.057091 8.190613 -3.874256
v -0.057091 8.190613 -0.012887
v -3.931347 0.357503 0.000730
v -6.593899 3.001728 -3.874256
v -0.057091 0.357503 0.000730
v -0.057091 2.347122 -7.075451
v -3.297148 0.252226 -9.820045
v -0.611187 8.190613 -0.006048
v -0.611187 8.190613 -3.321278
v -0.991986 2.440744 -6.617616
v -0.611187 0.357503 0.000730
v 3.817165 8.180357 0.000730
v 3.817165 8.190613 0.000730
v 6.479718 -0.212504 -3.874256
v 3.817165 8.190613 -0.007824
v 3.817165 0.357503 0.000730
v 6.479718 3.001728 -3.874256
v 3.182966 0.252226 -9.820045
v 0.497006 8.190613 -0.006048
v 0.497006 8.190613 -3.321278
v 0.877804 2.440744 -6.617616
v 0.497006 0.357503 0.000730
v -3.931347 0.357503 0.000730
v 3.817165 0.357503 0.000730
v -6.582136 -0.200699 -3.877210
v -0.057091 0.409403 -10.672487
v -3.283014 0.241099 -9.767853
v 6.425878 -0.200699 -3.877210
v 3.189871 0.241099 -9.809929
v -0.348588 0.617418 -10.200846
v -0.342950 0.594536 -10.253315
v -0.326253 0.572533 -10.303768
v -0.299139 0.552255 -10.350265
v -0.262650 0.534480 -10.391020
v -0.218187 0.519894 -10.424468
v -0.167460 0.509055 -10.449321
v -0.112418 0.502380 -10.464625
v -0.055177 0.500127 -10.469793
v 0.002065 0.502380 -10.464625
v 0.057107 0.509055 -10.449321
v 0.107833 0.519894 -10.424468
v 0.152296 0.534481 -10.391020
v 0.188785 0.552255 -10.350265
v 0.215899 0.572533 -10.303768
v 0.232596 0.594536 -10.253315
v 0.238234 0.617418 -10.200846
v 0.232596 0.640301 -10.148377
v 0.215899 0.662304 -10.097924
v 0.188785 0.682582 -10.051428
v 0.152296 0.700356 -10.010673
v 0.107833 0.714943 -9.977225
v 0.057107 0.725781 -9.952372
v 0.002065 0.732456 -9.937067
v -0.055177 0.734710 -9.931899
v -0.112418 0.732456 -9.937067
v -0.167460 0.725781 -9.952372
v -0.218187 0.714943 -9.977225
v -0.262650 0.700356 -10.010673
v -0.299139 0.682582 -10.051428
v -0.326253 0.662304 -10.097924
v -0.342950 0.640301 -10.148377
v -0.055177 1.155312 -10.435430
v -1.879818 0.561359 -9.818233
v -1.874180 0.538476 -9.870701
v -1.857484 0.516474 -9.921154
v -1.830370 0.496195 -9.967651
v -1.793880 0.478421 -10.008407
v -1.749418 0.463835 -10.041853
v -1.698691 0.452996 -10.066708
v -1.643649 0.446321 -10.082012
v -1.586408 0.444067 -10.087180
v -1.529166 0.446321 -10.082012
v -1.474124 0.452996 -10.066708
v -1.423397 0.463835 -10.041854
v -1.378935 0.478421 -10.008407
v -1.342445 0.496195 -9.967651
v -1.315331 0.516474 -9.921154
v -1.298635 0.538476 -9.870701
v -1.292997 0.561359 -9.818233
v -1.298635 0.584241 -9.765764
v -1.315331 0.606245 -9.715311
v -1.342445 0.626523 -9.668814
v -1.378935 0.644297 -9.628058
v -1.423397 0.658883 -9.594611
v -1.474124 0.669722 -9.569757
v -1.529166 0.676397 -9.554453
v -1.586408 0.678651 -9.549286
v -1.643649 0.676397 -9.554453
v -1.698691 0.669722 -9.569757
v -1.749418 0.658883 -9.594611
v -1.793880 0.644297 -9.628058
v -1.830370 0.626523 -9.668814
v -1.857484 0.606245 -9.715311
v -1.874180 0.584241 -9.765764
v -1.586408 1.099253 -10.052815
v 1.215427 0.582025 -9.651271
v 1.221065 0.559143 -9.703739
v 1.237761 0.537140 -9.754192
v 1.264876 0.516861 -9.800690
v 1.301365 0.499088 -9.841445
v 1.345827 0.484501 -9.874892
v 1.396554 0.473662 -9.899746
v 1.451596 0.466987 -9.915051
v 1.508838 0.464734 -9.920218
v 1.566079 0.466987 -9.915051
v 1.621121 0.473662 -9.899746
v 1.671848 0.484501 -9.874893
v 1.716310 0.499088 -9.841445
v 1.752800 0.516862 -9.800690
v 1.779914 0.537140 -9.754192
v 1.796611 0.559143 -9.703739
v 1.802248 0.582025 -9.651271
v 1.796611 0.604908 -9.598803
v 1.779914 0.626911 -9.548349
v 1.752800 0.647189 -9.501852
v 1.716310 0.664963 -9.461097
v 1.671848 0.679550 -9.427650
v 1.621121 0.690388 -9.402796
v 1.566079 0.697063 -9.387491
v 1.508838 0.699317 -9.382324
v 1.451596 0.697063 -9.387491
v 1.396554 0.690388 -9.402796
v 1.345827 0.679550 -9.427650
v 1.301365 0.664963 -9.461097
v 1.264876 0.647189 -9.501852
v 1.237761 0.626911 -9.548349
v 1.221065 0.604908 -9.598803
v 1.508838 1.119919 -9.885854
vn -0.8246 0.0006 0.5657
vn 0.0010 0.0004 1.0000
vn -0.0000 1.0000 -0.0000
vn -0.4854 0.4395 -0.7558
vn -0.1689 0.8695 -0.4642
vn 0.8242 -0.0000 -0.5663
vn -0.5630 0.5858 -0.5830
vn -0.4345 0.5749 -0.6933
vn 0.0062 0.0013 1.0000
vn 0.8246 0.0006 0.5657
vn -0.0010 0.0004 1.0000
vn 0.4854 0.4395 -0.7558
vn 0.1689 0.8695 -0.4642
vn -0.8242 -0.0000 -0.5663
vn 0.5630 0.5858 -0.5830
vn 0.4345 0.5749 -0.6933
vn -0.0062 0.0013 1.0000
vn -0.0826 -0.9964 0.0171
vn 0.0439 -0.9990 -0.0026
vn 0.0819 -0.9965 0.0173
vn -0.0436 -0.9990 -0.0026
vn -0.8910 0.3733 -0.2585
vn -0.8567 0.3045 -0.4163
vn -0.7896 0.2396 -0.5649
vn -0.6921 0.1813 -0.6987
vn -0.5680 0.1317 -0.8124
vn -0.4220 0.0927 -0.9018
vn -0.2599 0.0659 -0.9634
vn -0.0878 0.0522 -0.9948
vn 0.0878 0.0522 -0.9948
vn 0.2599 0.0659 -0.9634
vn 0.4220 0.0927 -0.9018
vn 0.5680 0.1317 -0.8124
vn 0.6921 0.1813 -0.6987
vn 0.7896 0.2396 -0.5649
vn 0.8567 0.3044 -0.4163
vn 0.8910 0.3733 -0.2585
vn 0.8910 0.4434 -0.0976
vn 0.8567 0.5122 0.0601
vn 0.7896 0.5771 0.2088
vn 0.6921 0.6354 0.3425
vn 0.5680 0.6850 0.4563
vn 0.4220 0.7240 0.5457
vn 0.2599 0.7508 0.6072
vn 0.0877 0.7645 0.6386
vn -0.0877 0.7645 0.6386
vn -0.2599 0.7508 0.6072
vn -0.4220 0.7240 0.5457
vn -0.5680 0.6850 0.4563
vn -0.6921 0.6354 0.3425
vn -0.7896 0.5771 0.2088
vn -0.0000 -0.9166 0.3998
vn -0.8567 0.5122 0.0601
vn -0.8910 0.4434 -0.0976
vn 0.8567 0.3045 -0.4163
vn 0.8567 0.5123 0.0601
vn -0.8567 0.5123 0.0601
vt 0.287098 -0.021925
vt 2.973137 -4.216784
vt 0.110762 2.434806
vt -3.555373 0.979560
vt 0.287098 -3.393912
vt -2.809236 1.907099
vt 2.975941 -4.215721
vt -3.553250 0.977442
vt -1.053015 1.806180
vt 4.211758 5.084901
vt 1.627210 -0.332701
vt -1.336399 1.901694
vt 3.194484 -0.467785
vt 0.461482 4.770265
vt 3.000263 -1.823660
vt 3.194483 -1.821263
vt -3.553250 -0.666723
vt 3.000263 -0.470182
vt -1.336399 4.551827
vt 1.627212 -1.823660
vt 0.110762 5.180449
vt -1.053015 -2.414189
vt -3.831110 -0.966059
vt 3.517948 -1.823660
vt -0.482455 -4.216784
vt -1.687120 1.806180
vt -1.053015 -0.646518
vt -3.553236 2.078925
vt -1.336385 1.806180
vt 4.650150 -0.475587
vt 3.251763 -0.021925
vt -1.336399 4.237152
vt 3.916679 3.679908
vt 0.461482 2.434806
vt 1.922289 -1.737694
vt 3.032927 5.084901
vt -3.248219 4.255003
vt -1.053015 2.434806
vt -4.375772 0.154138
vt 3.000263 -1.823661
vt -3.359015 -0.666720
vt -3.553250 -0.666723
vt -1.593631 1.806180
vt -2.685101 1.607254
vt 3.000263 -0.661614
vt -1.687120 4.131269
vt 3.560553 3.593942
vt -1.687120 4.001387
vt -3.248219 -0.650550
vt -1.053012 5.180450
vt -3.359016 2.078925
vt 4.455929 -0.475506
vt -2.706490 -0.666722
vt 1.627212 -4.216784
vt 1.687001 -0.021925
vt 5.375772 2.723720
vt -3.555373 0.979560
vt 1.627210 -0.844797
vt 1.581172 4.719104
vt 1.684197 -0.020861
vt -3.553250 0.981678
vt 1.142189 -0.021925
vt 3.032927 2.371199
vt 5.375772 -0.021924
vt 0.287098 -1.824520
vt -2.177384 -3.916511
vt 1.142189 2.371199
vt 0.857658 -0.021925
vt 2.703289 4.820021
vt 1.142189 2.430772
vt 2.806041 -0.332700
vt 1.142189 2.371199
vt 4.211995 2.723720
vt -4.375772 1.804982
vt 2.806042 -0.467785
vt -1.142164 4.551825
vt -3.553250 2.625842
vt 0.204251 4.865778
vt -0.489898 0.177001
vt 2.806042 -1.629832
vt 0.110762 2.540689
vt 2.278416 -1.823660
vt 2.703289 2.624813
vt -1.053015 2.434806
vt 4.211998 -0.021925
vt -1.142164 1.806180
vt -1.053014 -4.216784
vt 3.064027 0.027845
vt -4.375772 -2.532137
vt 4.650150 -4.216784
vt 4.211995 3.593942
vt 3.517948 -3.899410
vt -2.706491 -4.216784
vt -2.706490 -2.353783
vt -1.053014 -0.650551
vt 3.032927 3.593942
vt -1.093318 2.494984
vt 1.650060 -0.295594
vt -1.142164 2.266783
vt -1.073176 2.495868
vt -3.278407 0.481578
vt 1.664316 -0.309849
vt -3.258265 0.482461
vt -3.512928 2.512711
vt 1.681080 -0.321051
vt -3.492787 2.513595
vt -3.298511 1.632092
vt 1.699706 -0.328766
vt -3.318653 1.632976
vt -3.338834 0.022081
vt 1.719481 -0.332699
vt -3.318691 0.022965
vt 2.117181 -0.102951
vt 1.739641 -0.332700
vt 2.137342 -0.102951
vt -3.278407 1.861176
vt 1.759416 -0.328766
vt -3.258265 1.862060
vt -1.073177 2.035928
vt 1.778042 -0.321051
vt -1.093318 2.036812
vt -3.318653 2.551748
vt 1.794806 -0.309850
vt -3.298491 2.551748
vt -1.073176 2.035929
vt 1.809062 -0.295594
vt -1.053015 2.035929
vt -1.142164 2.265015
vt 1.820263 -0.278831
vt -1.122022 2.265899
vt -3.318691 -0.207005
vt 1.827978 -0.260204
vt -3.298530 -0.207005
vt -1.142164 2.035929
vt 1.831912 -0.240430
vt -1.122002 2.035929
vt 2.238050 -0.103614
vt 1.831912 -0.220269
vt 2.258191 -0.102730
vt -3.298511 0.712211
vt 1.827978 -0.200495
vt -3.318653 0.713095
vt 2.318636 -0.332700
vt 1.820263 -0.181868
vt 2.298494 -0.331817
vt -1.073176 2.494984
vt 1.809062 -0.165105
vt -1.053034 2.495868
vt -3.338873 -0.207004
vt 1.794806 -0.150848
vt -3.359015 -0.206120
vt -3.432343 2.283625
vt 1.778043 -0.139647
vt -3.452484 2.284508
vt -3.338833 0.711992
vt 1.759416 -0.131932
vt -3.318692 0.712876
vt 2.036614 -0.103614
vt 1.739643 -0.127999
vt 2.056755 -0.102731
vt -3.338854 -0.436975
vt 1.719481 -0.127999
vt -3.318692 -0.436975
vt -3.258267 1.402120
vt 1.699707 -0.131932
vt -3.278408 1.403003
vt -3.298512 1.172152
vt 1.681081 -0.139647
vt -3.318653 1.173036
vt -3.278408 -0.436974
vt 1.664317 -0.150848
vt -3.258246 -0.436974
vt -3.338854 1.172152
vt 1.650060 -0.165104
vt -3.358995 1.173036
vt -3.318671 0.712213
vt 1.638860 -0.181867
vt -3.298509 0.712213
vt -3.359016 0.942404
vt 1.631144 -0.200494
vt -3.338854 0.942404
vt -3.392058 2.513373
vt 1.627211 -0.220268
vt -3.371896 2.513373
vt -3.318692 0.022965
vt 1.627211 -0.240429
vt -3.338833 0.023849
vt 1.631144 -0.260203
vt -3.318672 0.252716
vt 1.638860 -0.278830
vt -3.298511 0.252716
vt -1.122022 2.265899
vt -3.258265 0.252492
vt -3.492787 2.283625
vt -3.298511 1.862062
vt -3.318691 -0.207005
vt 2.127259 -0.332700
vt -1.073177 2.265897
vt -3.308572 2.322002
vt -1.063097 1.806180
vt -1.122022 2.035929
vt -3.308611 -0.436753
vt -1.132083 1.806180
vt 2.258191 -0.332700
vt -3.298511 0.942182
vt 2.318636 -0.102730
vt -1.053035 2.265898
vt -3.338873 0.022966
vt -3.432343 2.513596
vt -3.318692 0.482905
vt 2.056755 -0.332700
vt -3.328773 -0.666723
vt -3.258267 1.632090
vt -3.298512 1.402122
vt -3.268329 -0.666723
vt -3.338854 1.402122
vt -3.308593 0.482465
vt -3.348938 0.712656
vt -3.381980 2.283625
vt -3.318692 0.252936
vt -3.308591 0.022966
vt -1.122022 2.495869
vt 2.318636 -0.102951
vt -3.530401 2.116031
vt 2.217908 -0.331816
vt 2.338797 -0.102951
vt -3.359015 0.482685
vt -3.516145 2.101774
vt -3.338854 0.482685
vt 2.197766 -0.332700
vt -3.499381 2.090573
vt 2.177624 -0.331816
vt -3.298511 2.092033
vt -3.480755 2.082859
vt -3.318653 2.092916
vt -1.122003 2.035929
vt -3.460981 2.078925
vt -1.101842 2.035929
vt -3.338853 1.402567
vt -3.440820 2.078925
vt -3.318692 1.402567
vt 2.076897 -0.103614
vt -3.421046 2.082857
vt 2.097038 -0.102730
vt -3.412202 2.512711
vt -3.402419 2.090573
vt -3.392061 2.513595
vt -3.278408 1.402120
vt -3.385656 2.101774
vt -3.258246 1.402120
vt -3.318653 1.631208
vt -3.371400 2.116031
vt -3.298511 1.632092
vt -1.101842 2.035929
vt -3.360199 2.132794
vt -1.081680 2.035929
vt -3.278388 -0.207225
vt -3.352483 2.151420
vt -3.298530 -0.206342
vt -3.318711 1.862063
vt -3.348550 2.171195
vt -3.338853 1.862947
vt -3.472645 2.513373
vt -3.348550 2.191356
vt -3.452484 2.513373
vt -3.318691 -0.436975
vt -3.352483 2.211129
vt -3.338834 -0.436091
vt 2.157483 -0.332700
vt -3.360199 2.229756
vt 2.137341 -0.331816
vt 2.056755 -0.103614
vt -3.371400 2.246520
vt 2.076897 -0.102730
vt -3.338873 0.022965
vt -3.385656 2.260775
vt -3.359015 0.023849
vt -3.338854 2.551751
vt -3.402419 2.271977
vt -3.318695 2.551751
vt -3.258267 0.712431
vt -3.421046 2.279692
vt -3.278408 0.713315
vt -3.298512 0.942182
vt -3.440820 2.283625
vt -3.318653 0.943066
vt -3.298530 -0.207005
vt -3.460981 2.283625
vt -3.318671 -0.206121
vt -3.318692 0.942847
vt -3.480755 2.279692
vt -3.338833 0.943731
vt -3.553252 2.513374
vt -3.499381 2.271977
vt -3.533090 2.513374
vt 2.399281 -0.102950
vt -3.516145 2.260775
vt 2.419440 -0.102950
vt -3.278408 -0.207224
vt -3.530401 2.246520
vt -3.258244 -0.207225
vt -3.541602 2.229756
vt -3.278387 -0.206342
vt -1.073177 2.265013
vt -3.549317 2.211129
vt -1.053036 2.265897
vt -3.348552 2.283625
vt -3.553251 2.191356
vt -3.368693 2.284508
vt -3.258267 1.862060
vt -3.553251 2.171194
vt -3.278408 1.862943
vt -3.549317 2.151421
vt -3.258265 0.482461
vt -3.541602 2.132794
vt -3.278407 0.483345
vt 2.238050 -0.332700
vt 2.328716 -0.332700
vt -3.348933 0.252936
vt 2.197766 -0.102730
vt -3.298511 2.322003
vt -1.111923 1.806180
vt -3.328771 1.172818
vt 2.097038 -0.332700
vt -3.392061 2.283625
vt -3.268327 1.172372
vt -3.298511 1.402122
vt -1.091762 1.806180
vt -3.278388 0.022744
vt -3.318711 2.092033
vt -3.462565 2.283625
vt -3.318691 -0.207005
vt 2.157483 -0.102730
vt 2.076897 -0.332700
vt -3.338873 0.252935
vt -3.328773 2.322001
vt -3.258267 0.942402
vt -3.298512 1.172153
vt -3.298530 0.022966
vt -3.318692 1.172817
vt -3.543169 2.283625
vt 2.409362 -0.332700
vt -3.268327 -0.436974
vt -3.258244 0.022743
vt -1.053036 2.035928
vt -3.348552 2.513595
vt -3.258267 2.092029
vt -3.258265 0.712431
vt 2.238050 -0.102730
vt -3.533090 2.513373
vt 1.869017 -0.150848
vt -1.101841 2.265677
vt -3.512928 2.513373
vt -3.338854 1.862064
vt 1.854761 -0.165105
vt -3.318692 1.862064
vt 2.217908 -0.332700
vt 1.843560 -0.181869
vt 2.197766 -0.331817
vt 2.157484 -0.103613
vt 1.835845 -0.200495
vt 2.177625 -0.102730
vt -3.338854 1.632315
vt 1.831912 -0.220269
vt -3.318692 1.632315
vt -3.359015 1.172152
vt 1.831912 -0.240430
vt -3.338854 1.172152
vt -3.358995 1.861178
vt 1.835845 -0.260204
vt -3.338854 1.862062
vt 2.358959 -0.102953
vt 1.843560 -0.278831
vt 2.379121 -0.102953
vt -3.278408 1.171488
vt 1.854761 -0.295594
vt -3.258267 1.172372
vt -3.358995 1.631209
vt 1.869017 -0.309851
vt -3.338854 1.632092
vt -3.278426 2.321777
vt 1.885781 -0.321051
vt -3.258265 2.321777
vt -3.359015 -0.207888
vt 1.904408 -0.328766
vt -3.338873 -0.207004
vt -3.298511 1.862063
vt 1.924182 -0.332700
vt -3.318653 1.862946
vt -3.472645 2.283625
vt 1.944343 -0.332700
vt -3.492787 2.284508
vt -3.338834 0.482022
vt 1.964117 -0.328766
vt -3.318691 0.482906
vt 2.258191 -0.103614
vt 1.982743 -0.321051
vt 2.278333 -0.102731
vt 2.278333 -0.102951
vt 1.999507 -0.309849
vt 2.298494 -0.102951
vt -3.318672 0.482464
vt 2.013763 -0.295594
vt -3.298511 0.482464
vt -3.412202 2.283625
vt 2.024964 -0.278830
vt -3.432343 2.284508
vt -3.359016 0.711773
vt 2.032679 -0.260204
vt -3.338875 0.712657
vt 2.338797 -0.102952
vt 2.036612 -0.240429
vt 2.358959 -0.102952
vt -3.318692 -0.437637
vt 2.036612 -0.220269
vt -3.298549 -0.436754
vt -3.318713 2.092034
vt 2.032679 -0.200494
vt -3.338854 2.092917
vt -3.318692 0.712876
vt 2.024964 -0.181868
vt -3.338833 0.713761
vt -1.122004 2.495425
vt 2.013762 -0.165105
vt -1.101842 2.495425
vt -3.359016 -0.436974
vt 1.999506 -0.150848
vt -3.338854 -0.436974
vt -3.278405 -0.666723
vt 1.982743 -0.139647
vt -3.298549 -0.665839
vt 2.379119 -0.102950
vt 1.964116 -0.131932
vt 2.399278 -0.102950
vt 2.097037 -0.103615
vt 1.944342 -0.127999
vt 2.117178 -0.102732
vt -3.258285 2.321777
vt 1.924181 -0.127999
vt -3.278426 2.322661
vt 1.904407 -0.131932
vt -3.278407 0.252492
vt 1.885781 -0.139647
vt -3.258246 0.252492
vt -1.122002 2.265677
vt -3.523009 2.283625
vt -3.328774 1.632315
vt 2.217908 -0.102730
vt 2.177625 -0.332700
vt -3.328773 1.402566
vt -3.348933 0.942404
vt -3.338854 1.632092
vt 2.369040 -0.332700
vt -3.258267 0.942402
vt -3.338854 1.402122
vt -3.268346 2.092029
vt -3.338873 -0.436974
vt -3.298511 2.092033
vt -3.472645 2.513595
vt -3.318691 0.252936
vt 2.278333 -0.332700
vt 2.288413 -0.332700
vt -3.308592 0.252716
vt -3.412202 2.513596
vt -3.338875 0.482686
vt 2.348878 -0.332700
vt -3.298549 -0.666723
vt -3.318713 2.322001
vt -3.318692 0.942846
vt -1.111927 2.265676
vt -3.348935 -0.666723
vt -3.278405 -0.436754
vt 2.389199 -0.332700
vt 2.117178 -0.332700
vt -3.258285 2.551746
vt -3.268325 0.022742
vt -1.111921 2.035929
s 0
usemtl finalmetalplate
f 8/20/1 2/2/1 4/7/1 9/24/1
f 16/50/2 13/38/2 2/3/2 8/21/2
f 14/42/3 4/8/3 2/4/3 13/39/3
f 15/46/4 14/43/4 6/12/4 11/32/4
f 12/36/5 15/47/5 11/33/5 5/10/5
f 1/1/6 8/22/6 9/25/6 3/5/6
f 3/6/7 9/26/7 15/48/7 12/37/7
f 9/27/8 4/9/8 14/44/8 15/49/8
f 6/13/3 14/45/3 13/40/3 7/16/3
f 10/28/9 7/17/9 13/41/9 16/51/9
f 21/63/10 22/67/10 20/60/10 18/55/10
f 27/85/11 21/64/11 18/56/11 24/73/11
f 25/77/3 24/74/3 18/57/3 20/61/3
f 26/81/12 11/34/12 6/14/12 25/78/12
f 23/71/13 5/11/13 11/35/13 26/82/13
f 17/54/14 19/58/14 22/68/14 21/65/14
f 19/59/15 23/72/15 26/83/15 22/69/15
f 22/70/16 26/84/16 25/79/16 20/62/16
f 6/15/3 7/18/3 24/75/3 25/80/3
f 10/29/17 27/86/17 24/76/17 7/19/17
f 21/66/18 27/87/18 34/95/18 33/94/18
f 10/30/19 16/52/19 32/92/19 31/90/19
f 16/53/20 8/23/20 30/89/20 32/93/20
f 27/88/21 10/31/21 31/91/21 34/96/21
f 35/97/22 67/198/22 36/100/22
f 36/101/23 67/193/23 37/103/23
f 37/104/24 67/194/24 38/106/24
f 38/107/25 67/195/25 39/109/25
f 39/110/26 67/196/26 40/112/26
f 40/113/27 67/197/27 41/115/27
f 41/116/28 67/213/28 42/118/28
f 42/119/29 67/198/29 43/121/29
f 43/122/30 67/199/30 44/124/30
f 44/125/31 67/200/31 45/127/31
f 45/128/32 67/201/32 46/130/32
f 46/131/33 67/202/33 47/133/33
f 47/134/34 67/203/34 48/136/34
f 48/137/35 67/204/35 49/139/35
f 49/140/36 67/205/36 50/142/36
f 50/143/37 67/206/37 51/145/37
f 51/146/38 67/207/38 52/148/38
f 52/149/39 67/208/39 53/151/39
f 53/152/40 67/209/40 54/154/40
f 54/155/41 67/210/41 55/157/41
f 55/158/42 67/211/42 56/160/42
f 56/161/43 67/212/43 57/163/43
f 57/164/44 67/213/44 58/166/44
f 58/167/45 67/214/45 59/169/45
f 59/170/46 67/215/46 60/172/46
f 60/173/47 67/216/47 61/175/47
f 61/176/48 67/217/48 62/178/48
f 62/179/49 67/218/49 63/181/49
f 63/182/50 67/219/50 64/184/50
f 64/185/51 67/220/51 65/187/51
f 35/98/52 36/102/52 37/105/52 38/108/52 39/111/52 40/114/52 41/117/52 42/120/52 43/123/52 44/126/52 45/129/52 46/132/52 47/135/52 48/138/52 49/141/52 50/144/52 51/147/52 52/150/52 53/153/52 54/156/52 55/159/52 56/162/52 57/165/52 58/168/52 59/171/52 60/174/52 61/177/52 62/180/52 63/183/52 64/186/52 65/188/52 66/190/52
f 65/189/53 67/221/53 66/191/53
f 66/192/54 67/222/54 35/99/54
f 68/223/22 100/318/22 69/226/22
f 69/227/23 100/319/23 70/229/23
f 70/230/24 100/320/24 71/232/24
f 71/233/25 100/321/25 72/235/25
f 72/236/26 100/322/26 73/238/26
f 73/239/27 100/323/27 74/241/27
f 74/242/28 100/324/28 75/244/28
f 75/245/29 100/325/29 76/247/29
f 76/248/30 100/326/30 77/250/30
f 77/251/31 100/327/31 78/253/31
f 78/254/32 100/328/32 79/256/32
f 79/257/33 100/329/33 80/259/33
f 80/260/34 100/330/34 81/262/34
f 81/263/35 100/331/35 82/265/35
f 82/266/55 100/332/55 83/268/55
f 83/269/37 100/333/37 84/271/37
f 84/272/38 100/334/38 85/274/38
f 85/275/39 100/335/39 86/277/39
f 86/278/40 100/336/40 87/280/40
f 87/281/41 100/337/41 88/283/41
f 88/284/42 100/338/42 89/286/42
f 89/287/43 100/339/43 90/289/43
f 90/290/44 100/340/44 91/292/44
f 91/293/45 100/341/45 92/295/45
f 92/296/46 100/342/46 93/298/46
f 93/299/47 100/343/47 94/301/47
f 94/301/48 100/344/48 95/303/48
f 95/304/49 100/345/49 96/306/49
f 96/307/50 100/346/50 97/309/50
f 97/310/51 100/347/51 98/312/51
f 68/224/52 69/228/52 70/231/52 71/234/52 72/237/52 73/240/52 74/243/52 75/246/52 76/249/52 77/252/52 78/255/52 79/258/52 80/261/52 81/264/52 82/267/52 83/270/52 84/273/52 85/276/52 86/279/52 87/282/52 88/285/52 89/288/52 90/291/52 91/294/52 92/297/52 93/300/52 94/302/52 95/305/52 96/308/52 97/311/52 98/313/52 99/315/52
f 98/314/53 100/348/53 99/316/53
f 99/317/54 100/349/54 68/225/54
f 101/350/22 133/446/22 102/353/22
f 102/354/23 133/447/23 103/356/23
f 103/357/24 133/448/24 104/359/24
f 104/360/25 133/449/25 105/362/25
f 105/363/26 133/450/26 106/365/26
f 106/366/27 133/451/27 107/368/27
f 107/369/28 133/452/28 108/371/28
f 108/372/29 133/453/29 109/374/29
f 109/375/30 133/454/30 110/377/30
f 110/378/31 133/455/31 111/380/31
f 111/381/32 133/456/32 112/383/32
f 112/384/33 133/457/33 113/386/33
f 113/387/34 133/458/34 114/389/34
f 114/390/35 133/459/35 115/392/35
f 115/393/55 133/460/55 116/395/55
f 116/396/37 133/461/37 117/398/37
f 117/399/38 133/462/38 118/401/38
f 118/402/56 133/463/56 119/404/56
f 119/405/40 133/464/40 120/407/40
f 120/408/41 133/465/41 121/410/41
f 121/411/42 133/466/42 122/413/42
f 122/414/43 133/467/43 123/416/43
f 123/417/44 133/468/44 124/419/44
f 124/420/45 133/469/45 125/422/45
f 125/423/46 133/470/46 126/425/46
f 126/426/47 133/471/47 127/428/47
f 127/429/48 133/472/48 128/431/48
f 128/432/49 133/473/49 129/434/49
f 129/435/50 133/474/50 130/437/50
f 130/438/51 133/475/51 131/440/51
f 101/351/52 102/355/52 103/358/52 104/361/52 105/364/52 106/367/52 107/370/52 108/373/52 109/376/52 110/379/52 111/382/52 112/385/52 113/388/52 114/391/52 115/394/52 116/397/52 117/400/52 118/403/52 119/406/52 120/409/52 121/412/52 122/415/52 123/418/52 124/421/52 125/424/52 126/427/52 127/430/52 128/433/52 129/436/52 130/439/52 131/441/52 132/443/52
f 131/442/57 133/476/57 132/444/57
f 132/445/54 133/477/54 101/352/54
l 21 29
l 8 28
